<svg width="24" height="24" viewBox="0 0 24 24" fill="none" xmlns="http://www.w3.org/2000/svg">
<path fill-rule="evenodd" clip-rule="evenodd" d="M2 5.9375C2 5.68886 2.09877 5.4504 2.27459 5.27459C2.4504 5.09877 2.68886 5 2.9375 5H21.0625C21.3111 5 21.5496 5.09877 21.7254 5.27459C21.9012 5.4504 22 5.68886 22 5.9375C22 6.18614 21.9012 6.4246 21.7254 6.60041C21.5496 6.77623 21.3111 6.875 21.0625 6.875H2.9375C2.68886 6.875 2.4504 6.77623 2.27459 6.60041C2.09877 6.4246 2 6.18614 2 5.9375ZM2 12.5C2 12.2514 2.09877 12.0129 2.27459 11.8371C2.4504 11.6613 2.68886 11.5625 2.9375 11.5625H21.0625C21.3111 11.5625 21.5496 11.6613 21.7254 11.8371C21.9012 12.0129 22 12.2514 22 12.5C22 12.7486 21.9012 12.9871 21.7254 13.1629C21.5496 13.3387 21.3111 13.4375 21.0625 13.4375H2.9375C2.68886 13.4375 2.4504 13.3387 2.27459 13.1629C2.09877 12.9871 2 12.7486 2 12.5ZM2 19.0625C2 18.8139 2.09877 18.5754 2.27459 18.3996C2.4504 18.2238 2.68886 18.125 2.9375 18.125H21.0625C21.3111 18.125 21.5496 18.2238 21.7254 18.3996C21.9012 18.5754 22 18.8139 22 19.0625C22 19.3111 21.9012 19.5496 21.7254 19.7254C21.5496 19.9012 21.3111 20 21.0625 20H2.9375C2.68886 20 2.4504 19.9012 2.27459 19.7254C2.09877 19.5496 2 19.3111 2 19.0625Z" fill="#1F2937"/>
</svg>
