<svg width="114" height="28" viewBox="0 0 114 28" fill="none" xmlns="http://www.w3.org/2000/svg">
<path d="M5.94467 1.43959L11.4544 13.3882L16.9641 1.43959H22.8906L14.2092 18.1028V27.6401H8.69952V18.1028L0 1.43959H5.94467Z" fill="#3B82F6"/>
<path d="M34.3269 23.2494V14.5758C34.3269 13.952 34.2242 13.4182 34.0188 12.9743C33.8134 12.5184 33.4932 12.1645 33.0582 11.9126C32.6353 11.6607 32.0855 11.5347 31.4089 11.5347C30.8289 11.5347 30.3275 11.6367 29.9046 11.8406C29.4817 12.0326 29.1555 12.3145 28.9259 12.6864C28.6963 13.0463 28.5816 13.4722 28.5816 13.964H23.3618C23.3618 13.1362 23.5552 12.3505 23.9418 11.6067C24.3285 10.8629 24.8903 10.2091 25.6273 9.64524C26.3644 9.06941 27.2404 8.61954 28.2553 8.29563C29.2824 7.97172 30.4302 7.80977 31.6989 7.80977C33.2213 7.80977 34.5746 8.0617 35.7587 8.56555C36.9428 9.06941 37.8731 9.82519 38.5498 10.8329C39.2385 11.8406 39.5828 13.1003 39.5828 14.6118V22.9434C39.5828 24.0111 39.6493 24.8869 39.7822 25.5707C39.9151 26.2425 40.1084 26.8303 40.3622 27.3342V27.6401H35.0881C34.8343 27.1123 34.641 26.4524 34.5081 25.6607C34.3873 24.8569 34.3269 24.0531 34.3269 23.2494ZM35.0156 15.7815L35.0518 18.7147H32.1339C31.4452 18.7147 30.8471 18.7926 30.3396 18.9486C29.8321 19.1045 29.4153 19.3265 29.089 19.6144C28.7628 19.8903 28.5211 20.2142 28.3641 20.5861C28.2191 20.958 28.1466 21.3659 28.1466 21.8098C28.1466 22.2536 28.2493 22.6555 28.4547 23.0154C28.6601 23.3633 28.9561 23.6392 29.3428 23.8432C29.7294 24.0351 30.1825 24.1311 30.7021 24.1311C31.4874 24.1311 32.1701 23.9751 32.7501 23.6632C33.33 23.3513 33.7771 22.9674 34.0913 22.5116C34.4175 22.0557 34.5866 21.6238 34.5987 21.2159L35.9762 23.4113C35.7828 23.9032 35.517 24.413 35.1787 24.9409C34.8525 25.4687 34.4356 25.9666 33.9281 26.4344C33.4207 26.8903 32.8105 27.2682 32.0976 27.5681C31.3847 27.856 30.5389 28 29.5603 28C28.3157 28 27.186 27.7541 26.1711 27.2622C25.1682 26.7584 24.3707 26.0686 23.7787 25.1928C23.1987 24.3051 22.9087 23.2973 22.9087 22.1697C22.9087 21.15 23.1021 20.2442 23.4887 19.4524C23.8754 18.6607 24.4432 17.9949 25.1924 17.455C25.9536 16.9032 26.9021 16.4893 28.0378 16.2134C29.1736 15.9254 30.4906 15.7815 31.9889 15.7815H35.0156Z" fill="#3B82F6"/>
<path d="M54.2089 18.3008H47.4849V14.09H54.2089C55.248 14.09 56.0938 13.922 56.7463 13.5861C57.3987 13.2382 57.876 12.7584 58.1781 12.1465C58.4801 11.5347 58.6312 10.8449 58.6312 10.0771C58.6312 9.29734 58.4801 8.57155 58.1781 7.89974C57.876 7.22793 57.3987 6.68809 56.7463 6.28021C56.0938 5.87232 55.248 5.66838 54.2089 5.66838H49.3698V27.6401H43.9326V1.43959H54.2089C56.275 1.43959 58.0452 1.81148 59.5192 2.55527C61.0054 3.28706 62.1412 4.30077 62.9265 5.5964C63.7119 6.89203 64.1046 8.37361 64.1046 10.0411C64.1046 11.7326 63.7119 13.1962 62.9265 14.4319C62.1412 15.6675 61.0054 16.6213 59.5192 17.2931C58.0452 17.9649 56.275 18.3008 54.2089 18.3008Z" fill="#1F2937"/>
<path d="M73.0397 0V27.6401H67.8019V0H73.0397Z" fill="#1F2937"/>
<path d="M86.379 28C84.8566 28 83.4913 27.7601 82.283 27.2802C81.0747 26.7883 80.0477 26.1105 79.2019 25.2468C78.3682 24.383 77.7278 23.3813 77.2808 22.2416C76.8337 21.09 76.6102 19.8663 76.6102 18.5707V17.8509C76.6102 16.3753 76.8216 15.0257 77.2445 13.8021C77.6674 12.5784 78.2715 11.5167 79.0569 10.617C79.8544 9.71722 80.821 9.02742 81.9568 8.54756C83.0925 8.0557 84.3733 7.80977 85.799 7.80977C87.1886 7.80977 88.421 8.0377 89.4963 8.49357C90.5717 8.94944 91.4719 9.59726 92.1968 10.437C92.9339 11.2768 93.4897 12.2845 93.8642 13.4602C94.2388 14.6238 94.4261 15.9195 94.4261 17.347V19.5064H78.8394V16.0514H89.297V15.6555C89.297 14.9357 89.1641 14.2939 88.8982 13.7301C88.6445 13.1542 88.2579 12.6984 87.7383 12.3625C87.2188 12.0266 86.5542 11.8586 85.7447 11.8586C85.056 11.8586 84.4639 12.0086 83.9685 12.3085C83.4731 12.6084 83.0684 13.0283 82.7542 13.5681C82.4521 14.108 82.2226 14.7438 82.0655 15.4756C81.9205 16.1954 81.848 16.9871 81.848 17.8509V18.5707C81.848 19.3505 81.9568 20.0703 82.1742 20.7301C82.4038 21.3899 82.724 21.9597 83.1348 22.4396C83.5577 22.9195 84.0652 23.2913 84.6572 23.5553C85.2614 23.8192 85.944 23.9512 86.7052 23.9512C87.6477 23.9512 88.5237 23.7712 89.3332 23.4113C90.1548 23.0394 90.8617 22.4816 91.4537 21.7378L93.9911 24.473C93.5803 25.0608 93.0184 25.6247 92.3056 26.1645C91.6048 26.7044 90.759 27.1482 89.7682 27.4961C88.7774 27.832 87.6477 28 86.379 28Z" fill="#1F2937"/>
<path d="M101.603 8.16967L104.847 14.09L108.182 8.16967H113.746L108.2 17.6889L114 27.6401H108.418L104.884 21.3779L101.349 27.6401H95.7673L101.567 17.6889L96.021 8.16967H101.603Z" fill="#1F2937"/>
</svg>
