<svg width="24" height="24" viewBox="0 0 24 24" fill="none" xmlns="http://www.w3.org/2000/svg">
<path d="M8.90688 17.6491C10.9621 17.8993 13.039 17.8993 15.0942 17.6491C17.1118 17.404 19.0941 16.9153 21 16.1933C19.3859 14.3584 18.494 11.9732 18.4976 9.50118V8.66771C18.4976 6.89932 17.8131 5.20337 16.5946 3.95293C15.3762 2.70249 13.7237 2 12.0005 2C10.2774 2 8.62488 2.70249 7.40645 3.95293C6.18803 5.20337 5.50352 6.89932 5.50352 8.66771V9.50118C5.50679 11.9734 4.6145 14.3586 3 16.1933C4.87656 16.9046 6.8549 17.3991 8.90688 17.6491ZM15.0942 17.6491C15.2502 18.149 15.289 18.6797 15.2075 19.1979C15.1259 19.7162 14.9262 20.2073 14.6247 20.6313C14.3231 21.0554 13.9283 21.4004 13.4723 21.6382C13.0163 21.876 12.512 22 12.0005 22C11.489 22 10.9848 21.876 10.5288 21.6382C10.0728 21.4004 9.67793 21.0554 9.37642 20.6313C9.0749 20.2073 8.87522 19.7162 8.79363 19.1979C8.71203 18.6797 8.75084 18.149 8.90688 17.6491" stroke="#1F2937" stroke-width="1.5" stroke-linecap="round" stroke-linejoin="round"/>
</svg>
